<?xml version="1.0"?><svg width="1066.6666666666665" height="800" xmlns="http://www.w3.org/2000/svg" xmlns:xlink="http://www.w3.org/1999/xlink">
 <metadata id="metadata3">Handshake2officepeoplefriendsbusinesshandshakeMatthias Van WoenselMatthias Van WoenselMatthias Van Woensel18/04/2008image/svg+xmlen</metadata>
 <defs>
  <linearGradient id="linearGradient4768">
   <stop stop-color="#ffffff" id="stop4770" offset="0"/>
   <stop stop-color="#ffffff" stop-opacity="0" id="stop4772" offset="1"/>
  </linearGradient>
  <linearGradient id="linearGradient1549">
   <stop stop-color="#e1a547" offset="0" id="stop1550"/>
   <stop stop-color="#cdb250" offset="0.5" id="stop1552"/>
   <stop stop-color="#ffaaaa" offset="1" id="stop1551"/>
  </linearGradient>
  <linearGradient id="linearGradient1546">
   <stop stop-color="#000" offset="0" id="stop1547"/>
   <stop stop-color="#fff" offset="1" id="stop1548"/>
  </linearGradient>
  <linearGradient id="linearGradient1541">
   <stop stop-color="#000" offset="0" id="stop1542"/>
   <stop stop-color="#fff" offset="1" id="stop1543"/>
  </linearGradient>
  <linearGradient y2="0.5" x2="1.002471" y1="0.5" x1="-0.002471" id="linearGradient4776" xlink:href="#linearGradient4768"/>
 </defs>
 <g>
  <title>Layer 1</title>
  <path fill="#ffcaa1" fill-opacity="0.998993" fill-rule="evenodd" stroke="#000000" stroke-width="3" stroke-miterlimit="4" d="m105.599922,193.265991c53.271523,-5.428955 106.543068,-10.857895 159.814598,-16.286835c8.143433,-5.089645 16.286835,-10.179276 24.430267,-15.268921c18.662018,-7.464798 37.324005,-16.965454 55.986023,-24.430267c16.62616,-10.179268 29.93811,-22.145157 46.824646,-25.448181c19.362854,-3.787376 47.503296,-2.375168 68.201172,7.125496c43.770874,63.111504 87.541748,126.223 131.312622,189.334526c36.306091,35.966766 72.612183,71.933533 108.918274,107.900299c15.608215,21.03717 13.749146,54.429016 4.071716,69.219086c-8.305969,12.69397 -38.681274,21.03717 -58.021912,13.233032c1.357239,17.30481 -2.375122,37.66333 -11.197205,48.860535c-11.875793,7.804138 -32.912964,14.590271 -47.84259,11.197205c4.071716,14.590271 -2.699829,34.92334 -12.215088,43.770874c-9.825378,9.135864 -23.412354,14.929626 -45.806763,10.17926c-1.357239,7.464844 -1.25116,17.050476 -6.231079,21.674622c-9.271118,8.608948 -23.628113,12.256348 -36.521881,18.024597c-183.226929,-96.024536 -249.392227,-97.381775 -341.005707,-115.025818c-13.233063,-100.774841 -27.484047,-243.284698 -40.717094,-344.059509z" id="path4929"/>
  <path fill="url(#linearGradient4776)" fill-rule="evenodd" stroke-width="3" stroke-miterlimit="4" d="m105.599922,193.265991c53.271523,-5.428955 106.543068,-10.857895 159.814598,-16.286835c8.143433,-5.089645 16.286835,-10.179276 24.430267,-15.268921c18.662018,-7.464798 37.324005,-16.965454 55.986023,-24.430267c16.62616,-10.179268 29.93811,-22.145157 46.824646,-25.448181c19.362854,-3.787376 47.503296,-2.375168 68.201172,7.125496c43.770874,63.111504 87.541748,126.223 131.312622,189.334526c36.306091,35.966766 72.612183,71.933533 108.918274,107.900299c15.608215,21.03717 13.749146,54.429016 4.071716,69.219086c-8.305969,12.69397 -38.681274,21.03717 -58.021912,13.233032c1.357239,17.30481 -2.375122,37.66333 -11.197205,48.860535c-11.875793,7.804138 -32.912964,14.590271 -47.84259,11.197205c4.071716,14.590271 -2.699829,34.92334 -12.215088,43.770874c-9.825378,9.135864 -23.412354,14.929626 -45.806763,10.17926c-1.357239,7.464844 -1.25116,17.050476 -6.231079,21.674622c-9.271118,8.608948 -23.628113,12.256348 -36.521881,18.024597c-183.226929,-96.024536 -249.392227,-97.381775 -341.005707,-115.025818c-13.233063,-100.774841 -27.484047,-243.284698 -40.717094,-344.059509z" id="path3183"/>
  <path fill="#ffd8b4" fill-rule="evenodd" stroke="#000000" stroke-width="3" stroke-miterlimit="4" d="m266.319885,514.630798c-7.498291,8.212402 -15.589493,30.479065 -18.714386,43.187012c-0.474014,1.927673 5.433258,-1.421448 7.197845,0c6.153046,8.415588 9.052673,13.084534 18.714355,20.873718c4.792572,3.86377 9.965515,7.363464 15.115448,10.796753c7.086395,4.724243 14.090851,9.674438 21.593506,13.675903c10.491913,5.595703 19.810303,14.505005 32.390259,15.115417c18.826904,16.36853 29.780212,22.929077 51.824402,28.791382c4.587799,11.652405 11.38147,24.00116 23.033081,27.351746c10.61557,3.052673 28.439392,-0.980469 40.307861,-4.318665c10.81311,-3.041443 24.61319,-15.222412 30.230927,-20.873779c6.524506,-6.563538 4.185974,-17.841431 0,-27.351746c-2.822174,-6.411804 -14.210388,-10.862793 -22.313293,-14.395691c4.482849,-5.584656 10.616028,-9.586792 10.796753,-15.115417c0.407471,-12.465515 -2.89505,-22.292603 -12.236328,-32.390259c-10.071106,-10.886597 -29.468384,-15.627075 -41.747437,-7.197815c0.762512,-8.669189 2.369202,-21.133911 -5.75827,-30.230957c-12.351227,-13.824585 -26.42981,-19.422272 -44.626556,-18.714355c-29.593842,1.151337 -35.932404,15.513245 -51.104645,26.632019c-10.663361,7.814453 -28.864197,16.353333 -36.708954,15.115417c-2.232208,-5.719971 -1.46698,-14.109863 -6.478058,-20.873718c-3.120361,-4.211792 -6.058716,-7.142944 -11.51651,-10.076965z" id="path3686"/>
  <path fill="#ff7f00" fill-rule="evenodd" stroke="#000000" stroke-width="3" stroke-miterlimit="4" d="m39.434631,156.620605c74.98732,6.786179 150.256851,11.307327 224.961975,20.358551c34.808655,4.217377 30.440765,173.502136 21.376465,257.535645c-7.222534,66.959076 -41.055923,134.061249 -70.236984,195.442108c-10.178802,21.410583 -32.912903,53.950134 -47.84259,53.950134c-15.268829,0 -85.50592,-19.679932 -128.258865,-29.519897l0,-497.766541z" id="path8038"/>
  <path fill="#404f60" fill-rule="evenodd" stroke="#000000" stroke-width="1pt" stroke-opacity="0" d="m654.262817,129.136566l-12.215088,4.071701l-5.089661,14.250977l78.380432,280.947983l12.215149,8.143433l7.125488,2.035858l8.143372,-4.071716l7.125549,-39.699158l-10.179321,-94.667267l-27.484009,-107.900314l-37.66333,-59.039795l-20.358582,-4.071701z" id="path13008"/>
  <path fill="#ffd8b4" fill-rule="nonzero" stroke="#000000" stroke-width="3" stroke-miterlimit="4" d="m668.215698,137.454636c-12.215149,3.053772 -35.177429,13.653046 -47.442139,12.040482c-13.404724,-1.762466 -38.751099,-9.305496 -69.325867,-14.444c-31.146179,-5.234543 -47.216614,-16.092735 -75.322174,-17.23526c-32.549042,-1.323151 -41.735016,19.464127 -58.021851,35.750961c-30.198517,20.697861 -75.404327,40.966339 -84.487976,55.986008c-9.84787,16.283295 -25.108887,54.289459 -25.448212,69.219086c-8.482727,16.286835 -21.442108,31.451599 -22.569061,49.580292c-1.647217,26.498749 32.13385,29.73175 46.999329,23.71048c10.884644,-4.408813 17.644073,-12.893768 26.466125,-19.340637c25.057709,-9.479462 42.197815,-39.112854 60.057709,-65.147339c18.569702,-5.98407 29.221771,-12.687927 42.75296,-24.430267c7.341309,7.53714 18.281525,5.717102 28.501953,1.017914c-1.379639,17.397095 83.614777,54.228333 103.828644,65.147369c35.503967,37.365173 70.288147,69.691864 107.951477,106.33725c1.357178,4.071716 5.593567,11.74234 6.950806,15.814056c5.428955,-3.053772 14.346741,-4.769073 18.446228,-9.161346c5.401184,-5.787018 8.143372,-14.251007 12.215088,-21.376495c20.358582,-5.428925 40.717102,-10.85788 61.075684,-16.286835c-27.144775,-90.934845 -54.28949,-181.869705 -81.434204,-272.804565c-17.30481,9.500664 -33.889771,16.122185 -51.194519,25.622849z" id="path919"/>
  <path fill="#439b09" fill-rule="evenodd" stroke="#000000" stroke-width="3" stroke-miterlimit="4" d="m632.886353,147.459244c-1.049072,-6.025223 5.099609,-17.808731 16.286865,-22.394394c107.129395,-42.732979 205.621338,-62.43288 308.432007,-93.64933l13.233093,356.274635c-112.950623,19.04245 -160.760803,33.046448 -234.123352,54.968079c-4.246338,-0.092316 -15.690552,-7.022583 -21.376465,-13.233063c6.446899,2.035858 16.533325,7.0737 19.340637,6.107574c6.035339,-2.077057 7.013062,-22.337128 6.107544,-33.591614c-3.844788,-47.785309 -7.378845,-97.47641 -20.358582,-143.527771c-11.789795,-41.829712 -22.884583,-98.830582 -53.950134,-120.115463c-4.495667,-3.080231 -12.186768,-5.413498 -17.304749,-3.897049c-4.043335,1.198029 -8.225769,6.107559 -10.17926,12.040466l-6.107605,1.017929z" id="path9902"/>
 </g>
</svg>